<?xml version="1.0" encoding="utf-8"?>
<!-- Generator: Adobe Illustrator 24.2.1, SVG Export Plug-In . SVG Version: 6.00 Build 0)  -->
<svg
  xmlns="http://www.w3.org/2000/svg"
  xmlns:xlink="http://www.w3.org/1999/xlink"
  style="isolation:isolate"
  viewBox="0 0 1000 1000"
  width="1000pt"
  height="1000pt">
<g id="レイヤー_1">
  <path
    class="st0"
    d="M949.1,528.68c0.6-9.48,0.9-19.05,0.9-28.68s-0.3-19.2-0.9-28.68c-28.43-20.35-59.32-37.46-92.15-50.81
    c-2.27-10.22-4.96-20.29-8.06-30.17c21.77-28,39.97-58.31,54.42-90.17c-8.52-17.17-18.12-33.71-28.68-49.55
    c-34.83-3.41-70.19-2.79-105.33,2.08c-7.01-7.63-14.35-14.97-21.98-21.98c4.86-35.15,5.49-70.5,2.08-105.33
    c-15.84-10.56-32.38-20.16-49.55-28.68c-31.86,14.45-62.17,32.65-90.17,54.42c-9.88-3.1-19.95-5.8-30.17-8.06
    c-13.35-32.83-30.47-63.72-50.81-92.15C519.2,50.3,509.63,50,500,50s-19.2,0.3-28.68,0.9c-20.35,28.43-37.46,59.32-50.81,92.15
    c-10.22,2.27-20.29,4.96-30.17,8.06c-28-21.77-58.31-39.97-90.17-54.42c-17.17,8.52-33.71,18.12-49.55,28.68
    c-3.41,34.83-2.79,70.19,2.08,105.33c-7.63,7.01-14.97,14.35-21.98,21.98c-35.15-4.86-70.5-5.49-105.33-2.08
    c-10.56,15.84-20.16,32.38-28.68,49.55c14.45,31.86,32.65,62.17,54.42,90.17c-3.1,9.88-5.8,19.95-8.06,30.17
    c-32.83,13.35-63.72,30.47-92.15,50.81C50.3,480.8,50,490.37,50,500s0.3,19.2,0.9,28.68c28.43,20.35,59.32,37.46,92.15,50.81
    c2.27,10.22,4.96,20.29,8.06,30.17c-21.77,28-39.97,58.31-54.42,90.17c8.52,17.17,18.12,33.71,28.68,49.55
    c34.83,3.41,70.19,2.79,105.33-2.08c7.01,7.63,14.35,14.97,21.98,21.98c-4.86,35.15-5.49,70.5-2.08,105.33
    c15.84,10.56,32.38,20.16,49.55,28.68c31.86-14.45,62.17-32.65,90.17-54.42c9.88,3.1,19.95,5.8,30.17,8.06
    c13.35,32.83,30.47,63.72,50.81,92.15c9.48,0.6,19.05,0.9,28.68,0.9s19.2-0.3,28.68-0.9c20.35-28.43,37.46-59.32,50.81-92.15
    c10.22-2.27,20.29-4.96,30.17-8.06c28,21.77,58.31,39.97,90.17,54.42c17.17-8.52,33.71-18.12,49.55-28.68
    c3.41-34.83,2.79-70.19-2.08-105.33c7.63-7.01,14.97-14.35,21.98-21.98c35.15,4.86,70.5,5.49,105.33,2.08
    c10.56-15.84,20.16-32.38,28.68-49.55c-14.45-31.86-32.65-62.17-54.42-90.17c3.1-9.88,5.8-19.95,8.06-30.17
    C889.78,566.14,920.67,549.02,949.1,528.68z"
    fill="none"
    vector-effect="non-scaling-stroke"
    stroke-linejoin="round"
    stroke-linecap="round"
    stroke-miterlimit="3"
  />
  <circle
    class="st0"
    cx="500" cy="500" r="178"
    fill="none"
    vector-effect="non-scaling-stroke"
    stroke-linejoin="round"
    stroke-linecap="round"
    stroke-miterlimit="3"
  />
</g>
</svg>
