<svg xmlns="http://www.w3.org/2000/svg" viewBox="0 0 240.945 204.094">
  <path d="M46.35,95.629a.435.435,0,0,1-.468-.468V89.5a3.366,3.366,0,0,1,.45-1.685,3.208,3.208,0,0,1,1.188-1.182,3.316,3.316,0,0,1,1.686-.432,3.36,3.36,0,0,1,1.716.438,3.231,3.231,0,0,1,1.194,1.193,3.366,3.366,0,0,1,.438,1.717,3.413,3.413,0,0,1-.426,1.7,3.152,3.152,0,0,1-2.814,1.632,3.1,3.1,0,0,1-1.458-.343,2.886,2.886,0,0,1-1.05-.905v3.528a.462.462,0,0,1-.126.342A.446.446,0,0,1,46.35,95.629Zm2.856-3.588a2.429,2.429,0,0,0,1.248-.324,2.336,2.336,0,0,0,.87-.894,2.739,2.739,0,0,0,0-2.562,2.38,2.38,0,0,0-2.118-1.225,2.361,2.361,0,0,0-2.1,1.225,2.786,2.786,0,0,0,0,2.562,2.293,2.293,0,0,0,.864.894A2.406,2.406,0,0,0,49.206,92.041Z" transform="translate(-0.129 -0.27)" fill="#6cbb5a"/>
  <path d="M57.222,92.892a3.208,3.208,0,0,1-1.524-.354A2.591,2.591,0,0,1,54.636,91.5a3.319,3.319,0,0,1-.39-1.668v-3.12a.451.451,0,0,1,.456-.456.455.455,0,0,1,.336.132.44.44,0,0,1,.132.324v3.12a2.389,2.389,0,0,0,.282,1.224,1.8,1.8,0,0,0,.768.72,2.446,2.446,0,0,0,1.1.239,2.4,2.4,0,0,0,1.062-.228,1.881,1.881,0,0,0,.75-.623,1.538,1.538,0,0,0,.276-.9h.66a2.676,2.676,0,0,1-1.428,2.286A2.941,2.941,0,0,1,57.222,92.892Zm2.64-.071a.446.446,0,0,1-.33-.126.464.464,0,0,1-.126-.342v-5.64a.432.432,0,0,1,.456-.456.467.467,0,0,1,.336.126.435.435,0,0,1,.132.33v5.64a.452.452,0,0,1-.132.342A.467.467,0,0,1,59.862,92.821Z" transform="translate(-0.129 -0.27)" fill="#6cbb5a"/>
  <path d="M63.906,92.821a1.462,1.462,0,0,1-.858-.264,1.735,1.735,0,0,1-.588-.732,2.616,2.616,0,0,1-.21-1.081V83.905a.456.456,0,1,1,.912,0v6.839a1.521,1.521,0,0,0,.21.841.621.621,0,0,0,.534.324h.3a.36.36,0,0,1,.288.126.489.489,0,0,1,.108.33.41.41,0,0,1-.15.33.586.586,0,0,1-.39.126Z" transform="translate(-0.129 -0.27)" fill="#6cbb5a"/>
  <path d="M67.29,92.821a1.462,1.462,0,0,1-.858-.264,1.735,1.735,0,0,1-.588-.732,2.616,2.616,0,0,1-.21-1.081V83.905a.456.456,0,1,1,.912,0v6.839a1.521,1.521,0,0,0,.21.841.621.621,0,0,0,.534.324h.3a.36.36,0,0,1,.288.126.489.489,0,0,1,.108.33.41.41,0,0,1-.15.33.586.586,0,0,1-.39.126Z" transform="translate(-0.129 -0.27)" fill="#6cbb5a"/>
  <path d="M75.234,92.617a.441.441,0,0,1-.336.03.458.458,0,0,1-.252-.235L71.97,86.869a.413.413,0,0,1-.024-.336.437.437,0,0,1,.24-.24.432.432,0,0,1,.336-.03.423.423,0,0,1,.24.233l2.628,5.545a.488.488,0,0,1,.06.336A.354.354,0,0,1,75.234,92.617ZM73.9,95.677a.585.585,0,0,1-.216-.048.384.384,0,0,1-.228-.576l3.876-8.544a.393.393,0,0,1,.576-.216.373.373,0,0,1,.228.564L74.25,95.4A.381.381,0,0,1,73.9,95.677Z" transform="translate(-0.129 -0.27)" fill="rgba(0,0,0,0.6)"/>
  <path d="M82.337,92.881a3.4,3.4,0,0,1-1.716-.432,3.151,3.151,0,0,1-1.188-1.188,3.648,3.648,0,0,1,0-3.444,3.151,3.151,0,0,1,1.188-1.188,3.612,3.612,0,0,1,3.426,0,3.15,3.15,0,0,1,1.182,1.188,3.511,3.511,0,0,1,.444,1.728,3.36,3.36,0,0,1-.438,1.716,3.194,3.194,0,0,1-1.188,1.188A3.364,3.364,0,0,1,82.337,92.881Zm0-.84a2.429,2.429,0,0,0,1.248-.324,2.309,2.309,0,0,0,.865-.889,2.612,2.612,0,0,0,.312-1.283,2.653,2.653,0,0,0-.312-1.29,2.3,2.3,0,0,0-.865-.894,2.559,2.559,0,0,0-2.5,0,2.333,2.333,0,0,0-.869.894,2.592,2.592,0,0,0-.319,1.29,2.552,2.552,0,0,0,.319,1.283,2.341,2.341,0,0,0,.869.889A2.429,2.429,0,0,0,82.337,92.041Z" transform="translate(-0.129 -0.27)" fill="rgba(0,0,0,0.6)"/>
  <path d="M90.329,92.892a3.2,3.2,0,0,1-1.523-.354A2.579,2.579,0,0,1,87.744,91.5a3.309,3.309,0,0,1-.391-1.668v-3.12a.451.451,0,0,1,.456-.456.455.455,0,0,1,.336.132.44.44,0,0,1,.132.324v3.12a2.389,2.389,0,0,0,.282,1.224,1.8,1.8,0,0,0,.768.72,2.448,2.448,0,0,0,1.1.239,2.411,2.411,0,0,0,1.062-.228,1.888,1.888,0,0,0,.75-.623,1.545,1.545,0,0,0,.276-.9h.659a2.67,2.67,0,0,1-1.428,2.286A2.941,2.941,0,0,1,90.329,92.892Zm2.641-.071a.443.443,0,0,1-.33-.126.464.464,0,0,1-.126-.342v-5.64a.432.432,0,0,1,.456-.456.47.47,0,0,1,.336.126.438.438,0,0,1,.131.33v5.64a.455.455,0,0,1-.131.342A.47.47,0,0,1,92.97,92.821Z" transform="translate(-0.129 -0.27)" fill="rgba(0,0,0,0.6)"/>
  <path d="M96.054,92.821a.417.417,0,0,1-.456-.456V86.713a.457.457,0,1,1,.912,0v5.652a.417.417,0,0,1-.456.456Zm-.073-4.044a2.813,2.813,0,0,1,.39-1.332,2.613,2.613,0,0,1,.924-.924,2.45,2.45,0,0,1,1.266-.337,1.878,1.878,0,0,1,.852.157.377.377,0,0,1,.228.456.348.348,0,0,1-.162.239.5.5,0,0,1-.276.049l-.366-.024a2.672,2.672,0,0,0-1.194.138,1.8,1.8,0,0,0-.828.606,1.58,1.58,0,0,0-.3.972Z" transform="translate(-0.129 -0.27)" fill="rgba(0,0,0,0.6)"/>
  <path d="M106.9,92.881a4.262,4.262,0,0,1-1.405-.241,2.641,2.641,0,0,1-1.128-.719.385.385,0,0,1-.107-.324.483.483,0,0,1,.18-.312.478.478,0,0,1,.648.06,1.844,1.844,0,0,0,.761.516,2.938,2.938,0,0,0,1.051.18,2.114,2.114,0,0,0,1.283-.306.942.942,0,0,0,.409-.739.842.842,0,0,0-.409-.713,3.462,3.462,0,0,0-1.343-.438,3.616,3.616,0,0,1-1.776-.672,1.45,1.45,0,0,1-.564-1.14,1.589,1.589,0,0,1,.324-1.02,1.953,1.953,0,0,1,.864-.612,3.337,3.337,0,0,1,1.188-.2,3.215,3.215,0,0,1,1.386.276,2.523,2.523,0,0,1,.941.744.418.418,0,0,1,.1.324.391.391,0,0,1-.192.276.483.483,0,0,1-.33.053.531.531,0,0,1-.318-.173,1.821,1.821,0,0,0-.7-.51,2.366,2.366,0,0,0-.911-.162,1.842,1.842,0,0,0-1.056.27.8.8,0,0,0-.4.678.788.788,0,0,0,.15.48,1.218,1.218,0,0,0,.516.36,4.609,4.609,0,0,0,1.026.264,4.539,4.539,0,0,1,1.421.426,1.85,1.85,0,0,1,.745.659,1.6,1.6,0,0,1,.222.823,1.572,1.572,0,0,1-.33.989,2.157,2.157,0,0,1-.912.666A3.471,3.471,0,0,1,106.9,92.881Z" transform="translate(-0.129 -0.27)" fill="rgba(0,0,0,0.6)"/>
  <path d="M111.545,90.145a.452.452,0,0,1-.342-.132.467.467,0,0,1-.126-.336v-5.76a.435.435,0,0,1,.468-.468.446.446,0,0,1,.33.126.462.462,0,0,1,.126.342v5.76a.467.467,0,0,1-.126.336A.435.435,0,0,1,111.545,90.145Zm0,2.676a.464.464,0,0,1-.342-.126.446.446,0,0,1-.126-.33V86.724a.435.435,0,0,1,.468-.467.446.446,0,0,1,.33.126.46.46,0,0,1,.126.341v5.641a.432.432,0,0,1-.456.456Zm5.16,0a.457.457,0,0,1-.336-.132.444.444,0,0,1-.131-.324V89.244a2.388,2.388,0,0,0-.283-1.223,1.8,1.8,0,0,0-.767-.72,2.615,2.615,0,0,0-2.16-.013,1.894,1.894,0,0,0-.75.624,1.533,1.533,0,0,0-.277.9h-.66a2.6,2.6,0,0,1,.408-1.35,2.731,2.731,0,0,1,1.021-.936,2.939,2.939,0,0,1,1.416-.343,3.231,3.231,0,0,1,1.523.354,2.6,2.6,0,0,1,1.063,1.039,3.318,3.318,0,0,1,.389,1.667v3.121a.449.449,0,0,1-.456.456Z" transform="translate(-0.129 -0.27)" fill="rgba(0,0,0,0.6)"/>
  <path d="M122.093,92.881a3.152,3.152,0,0,1-2.813-1.632,3.4,3.4,0,0,1-.426-1.7,3.366,3.366,0,0,1,.437-1.717,3.234,3.234,0,0,1,1.2-1.193,3.334,3.334,0,0,1,1.7-.438,3.3,3.3,0,0,1,1.7.438,3.247,3.247,0,0,1,1.189,1.193,3.466,3.466,0,0,1,.45,1.717l-.372.288a3.03,3.03,0,0,1-.4,1.554,2.976,2.976,0,0,1-1.091,1.092A3.057,3.057,0,0,1,122.093,92.881Zm.1-.84a2.39,2.39,0,0,0,1.241-.324,2.349,2.349,0,0,0,.864-.894,2.732,2.732,0,0,0,0-2.562,2.407,2.407,0,0,0-.864-.894,2.484,2.484,0,0,0-2.478,0,2.439,2.439,0,0,0-.876.894,2.694,2.694,0,0,0,0,2.562,2.38,2.38,0,0,0,.876.894A2.412,2.412,0,0,0,122.19,92.041Zm2.867.78a.467.467,0,0,1-.336-.126.435.435,0,0,1-.132-.33V90.313l.229-.948.708.18v2.82a.435.435,0,0,1-.132.33A.469.469,0,0,1,125.057,92.821Z" transform="translate(-0.129 -0.27)" fill="rgba(0,0,0,0.6)"/>
  <path d="M127.793,95.629a.435.435,0,0,1-.467-.468V89.5a3.355,3.355,0,0,1,.45-1.685,3.205,3.205,0,0,1,1.187-1.182,3.32,3.32,0,0,1,1.687-.432,3.363,3.363,0,0,1,1.716.438,3.246,3.246,0,0,1,1.194,1.193A3.376,3.376,0,0,1,134,89.545a3.412,3.412,0,0,1-.425,1.7,3.155,3.155,0,0,1-2.815,1.632,3.1,3.1,0,0,1-1.458-.343,2.894,2.894,0,0,1-1.05-.905v3.528a.462.462,0,0,1-.126.342A.446.446,0,0,1,127.793,95.629Zm2.857-3.588a2.429,2.429,0,0,0,1.248-.324,2.35,2.35,0,0,0,.87-.894,2.747,2.747,0,0,0,0-2.562,2.38,2.38,0,0,0-2.118-1.225,2.361,2.361,0,0,0-2.1,1.225,2.794,2.794,0,0,0,0,2.562,2.293,2.293,0,0,0,.864.894A2.412,2.412,0,0,0,130.65,92.041Z" transform="translate(-0.129 -0.27)" fill="rgba(0,0,0,0.6)"/>
  <path d="M138.785,92.881a3.415,3.415,0,0,1-1.722-.427,3.048,3.048,0,0,1-1.176-1.181,3.459,3.459,0,0,1-.426-1.728,3.615,3.615,0,0,1,.4-1.734,3.03,3.03,0,0,1,1.11-1.182A3.07,3.07,0,0,1,138.6,86.2a2.993,2.993,0,0,1,1.59.414,2.8,2.8,0,0,1,1.049,1.146,3.615,3.615,0,0,1,.373,1.668.4.4,0,0,1-.121.306.432.432,0,0,1-.311.114h-5.1v-.768h5.2l-.516.372a2.745,2.745,0,0,0-.252-1.248,2.054,2.054,0,0,0-.75-.864,2.1,2.1,0,0,0-1.158-.312,2.215,2.215,0,0,0-1.2.323,2.166,2.166,0,0,0-.8.895,2.885,2.885,0,0,0-.282,1.3,2.593,2.593,0,0,0,.318,1.3,2.348,2.348,0,0,0,.87.888,2.466,2.466,0,0,0,1.272.324,2.672,2.672,0,0,0,.87-.15,2.11,2.11,0,0,0,.7-.378.487.487,0,0,1,.3-.114.421.421,0,0,1,.288.09.445.445,0,0,1,.162.312.343.343,0,0,1-.138.287,3.255,3.255,0,0,1-1.008.559A3.444,3.444,0,0,1,138.785,92.881Z" transform="translate(-0.129 -0.27)" fill="rgba(0,0,0,0.6)"/>
  <path d="M144.593,92.821a1.462,1.462,0,0,1-.858-.264,1.727,1.727,0,0,1-.588-.732,2.616,2.616,0,0,1-.21-1.081V83.905a.456.456,0,1,1,.912,0v6.839a1.521,1.521,0,0,0,.21.841.621.621,0,0,0,.534.324h.3a.36.36,0,0,1,.288.126.489.489,0,0,1,.108.33.41.41,0,0,1-.15.33.588.588,0,0,1-.39.126Z" transform="translate(-0.129 -0.27)" fill="rgba(0,0,0,0.6)"/>
  <path d="M149.536,92.881a3.414,3.414,0,0,1-1.721-.427,3.048,3.048,0,0,1-1.176-1.181,3.459,3.459,0,0,1-.426-1.728,3.615,3.615,0,0,1,.4-1.734,3.03,3.03,0,0,1,1.11-1.182,3.07,3.07,0,0,1,1.632-.432,3,3,0,0,1,1.59.414A2.8,2.8,0,0,1,152,87.757a3.628,3.628,0,0,1,.373,1.668.4.4,0,0,1-.121.306.432.432,0,0,1-.311.114h-5.1v-.768h5.2l-.516.372a2.745,2.745,0,0,0-.252-1.248,2.054,2.054,0,0,0-.75-.864,2.1,2.1,0,0,0-1.158-.312,2.215,2.215,0,0,0-1.2.323,2.166,2.166,0,0,0-.8.895,2.885,2.885,0,0,0-.282,1.3,2.593,2.593,0,0,0,.318,1.3,2.348,2.348,0,0,0,.87.888,2.465,2.465,0,0,0,1.271.324,2.673,2.673,0,0,0,.871-.15,2.11,2.11,0,0,0,.7-.378.487.487,0,0,1,.3-.114.421.421,0,0,1,.288.09.445.445,0,0,1,.162.312.343.343,0,0,1-.138.287,3.267,3.267,0,0,1-1.008.559A3.449,3.449,0,0,1,149.536,92.881Z" transform="translate(-0.129 -0.27)" fill="rgba(0,0,0,0.6)"/>
  <path d="M156.221,92.881a4.252,4.252,0,0,1-1.4-.241,2.629,2.629,0,0,1-1.128-.719.386.386,0,0,1-.108-.324.483.483,0,0,1,.18-.312.476.476,0,0,1,.348-.1.481.481,0,0,1,.3.156,1.841,1.841,0,0,0,.762.516,2.937,2.937,0,0,0,1.05.18,2.119,2.119,0,0,0,1.284-.306.944.944,0,0,0,.408-.739.841.841,0,0,0-.408-.713,3.468,3.468,0,0,0-1.344-.438,3.616,3.616,0,0,1-1.776-.672,1.454,1.454,0,0,1-.564-1.14,1.589,1.589,0,0,1,.324-1.02,1.959,1.959,0,0,1,.864-.612,3.337,3.337,0,0,1,1.188-.2,3.209,3.209,0,0,1,1.386.276,2.534,2.534,0,0,1,.942.744.421.421,0,0,1,.1.324.391.391,0,0,1-.192.276.483.483,0,0,1-.33.053.531.531,0,0,1-.318-.173,1.826,1.826,0,0,0-.7-.51,2.375,2.375,0,0,0-.912-.162,1.845,1.845,0,0,0-1.056.27.8.8,0,0,0-.4.678.788.788,0,0,0,.15.48,1.218,1.218,0,0,0,.516.36,4.624,4.624,0,0,0,1.026.264,4.555,4.555,0,0,1,1.422.426,1.854,1.854,0,0,1,.744.659,1.6,1.6,0,0,1,.222.823,1.566,1.566,0,0,1-.33.989,2.151,2.151,0,0,1-.912.666A3.468,3.468,0,0,1,156.221,92.881Z" transform="translate(-0.129 -0.27)" fill="rgba(0,0,0,0.6)"/>
  <path d="M162.689,92.881a4.248,4.248,0,0,1-1.4-.241,2.629,2.629,0,0,1-1.128-.719.386.386,0,0,1-.108-.324.476.476,0,0,1,.827-.252,1.851,1.851,0,0,0,.763.516,2.933,2.933,0,0,0,1.05.18,2.121,2.121,0,0,0,1.284-.306.947.947,0,0,0,.408-.739.843.843,0,0,0-.408-.713,3.474,3.474,0,0,0-1.345-.438,3.616,3.616,0,0,1-1.775-.672,1.455,1.455,0,0,1-.565-1.14,1.589,1.589,0,0,1,.325-1.02,1.953,1.953,0,0,1,.864-.612,3.331,3.331,0,0,1,1.187-.2,3.213,3.213,0,0,1,1.387.276,2.542,2.542,0,0,1,.942.744.421.421,0,0,1,.1.324.391.391,0,0,1-.192.276.483.483,0,0,1-.33.053.533.533,0,0,1-.319-.173,1.815,1.815,0,0,0-.695-.51,2.378,2.378,0,0,0-.912-.162,1.85,1.85,0,0,0-1.057.27.8.8,0,0,0-.4.678.788.788,0,0,0,.15.48,1.218,1.218,0,0,0,.516.36,4.624,4.624,0,0,0,1.026.264,4.563,4.563,0,0,1,1.422.426,1.854,1.854,0,0,1,.744.659,1.6,1.6,0,0,1,.222.823,1.566,1.566,0,0,1-.33.989,2.157,2.157,0,0,1-.912.666A3.468,3.468,0,0,1,162.689,92.881Z" transform="translate(-0.129 -0.27)" fill="rgba(0,0,0,0.6)"/>
  <path d="M70.47,113.884a.452.452,0,0,1-.468-.468V104.98a.45.45,0,0,1,.468-.468h2.244a3.255,3.255,0,0,1,1.56.366,2.718,2.718,0,0,1,1.074,1.02,2.884,2.884,0,0,1,.39,1.506,2.679,2.679,0,0,1-1.464,2.447,3.288,3.288,0,0,1-1.56.361H70.938v3.2a.452.452,0,0,1-.468.468Zm.468-4.572h1.776a2.324,2.324,0,0,0,1.086-.246,1.921,1.921,0,0,0,.75-.678,1.79,1.79,0,0,0,.276-.984,1.909,1.909,0,0,0-1.026-1.741,2.278,2.278,0,0,0-1.086-.252H70.938Zm4.548,4.572a.439.439,0,0,1-.246-.06.556.556,0,0,1-.162-.181l-2.3-3.671.936-.24,2.148,3.431a.49.49,0,0,1,.066.505A.449.449,0,0,1,75.486,113.884Z" transform="translate(-0.129 -0.27)" fill="#6cbb5a"/>
  <path d="M80.274,113.944a3.415,3.415,0,0,1-1.722-.427,3.054,3.054,0,0,1-1.176-1.181,3.459,3.459,0,0,1-.426-1.728,3.615,3.615,0,0,1,.4-1.734,3.038,3.038,0,0,1,1.11-1.182,3.07,3.07,0,0,1,1.632-.432,2.99,2.99,0,0,1,1.59.414,2.8,2.8,0,0,1,1.05,1.146,3.628,3.628,0,0,1,.372,1.668.4.4,0,0,1-.12.306.434.434,0,0,1-.312.114h-5.1v-.768h5.2l-.516.372A2.745,2.745,0,0,0,82,109.264a2.054,2.054,0,0,0-.75-.864,2.1,2.1,0,0,0-1.158-.312,2.217,2.217,0,0,0-1.2.323,2.173,2.173,0,0,0-.8.895,2.9,2.9,0,0,0-.282,1.3,2.593,2.593,0,0,0,.318,1.3,2.348,2.348,0,0,0,.87.888,2.466,2.466,0,0,0,1.272.324,2.672,2.672,0,0,0,.87-.15,2.11,2.11,0,0,0,.7-.378.491.491,0,0,1,.3-.115.427.427,0,0,1,.288.091.445.445,0,0,1,.162.312.343.343,0,0,1-.138.287,3.243,3.243,0,0,1-1.008.559A3.444,3.444,0,0,1,80.274,113.944Z" transform="translate(-0.129 -0.27)" fill="#6cbb5a"/>
  <path d="M90.522,116.692a.467.467,0,0,1-.336-.126.451.451,0,0,1-.132-.343V112.7a2.9,2.9,0,0,1-1.044.905,3.063,3.063,0,0,1-1.452.343,3.152,3.152,0,0,1-2.814-1.632,3.413,3.413,0,0,1-.426-1.7,3.366,3.366,0,0,1,.438-1.717A3.231,3.231,0,0,1,85.95,107.7a3.52,3.52,0,0,1,3.39-.006,3.208,3.208,0,0,1,1.188,1.182,3.458,3.458,0,0,1,.462,1.685v5.664a.451.451,0,0,1-.132.343A.467.467,0,0,1,90.522,116.692ZM87.654,113.1a2.4,2.4,0,0,0,1.242-.324,2.357,2.357,0,0,0,.864-.894,2.739,2.739,0,0,0,0-2.562,2.407,2.407,0,0,0-.864-.894,2.484,2.484,0,0,0-2.478,0,2.439,2.439,0,0,0-.876.894,2.694,2.694,0,0,0,0,2.562,2.374,2.374,0,0,0,2.112,1.218Z" transform="translate(-0.129 -0.27)" fill="#6cbb5a"/>
  <path d="M96.006,113.955a3.208,3.208,0,0,1-1.524-.354,2.591,2.591,0,0,1-1.062-1.037,3.319,3.319,0,0,1-.39-1.668v-3.12a.451.451,0,0,1,.456-.456.455.455,0,0,1,.336.132.44.44,0,0,1,.132.324v3.12a2.383,2.383,0,0,0,.282,1.223,1.8,1.8,0,0,0,.768.721,2.446,2.446,0,0,0,1.1.239,2.4,2.4,0,0,0,1.062-.228,1.881,1.881,0,0,0,.75-.623,1.538,1.538,0,0,0,.276-.9h.66a2.676,2.676,0,0,1-1.428,2.286A2.941,2.941,0,0,1,96.006,113.955Zm2.64-.071a.446.446,0,0,1-.33-.126.464.464,0,0,1-.126-.342v-5.64a.432.432,0,0,1,.456-.456.467.467,0,0,1,.336.126.435.435,0,0,1,.132.33v5.64a.452.452,0,0,1-.132.342A.467.467,0,0,1,98.646,113.884Z" transform="translate(-0.129 -0.27)" fill="rgba(0,0,0,0.6)"/>
  <path d="M104.25,113.944a3.415,3.415,0,0,1-1.722-.427,3.054,3.054,0,0,1-1.176-1.181,3.459,3.459,0,0,1-.426-1.728,3.615,3.615,0,0,1,.4-1.734,3.038,3.038,0,0,1,1.11-1.182,3.07,3.07,0,0,1,1.632-.432,2.99,2.99,0,0,1,1.59.414,2.8,2.8,0,0,1,1.05,1.146,3.628,3.628,0,0,1,.372,1.668.4.4,0,0,1-.12.306.434.434,0,0,1-.312.114h-5.1v-.768h5.2l-.516.372a2.745,2.745,0,0,0-.252-1.248,2.054,2.054,0,0,0-.75-.864,2.1,2.1,0,0,0-1.158-.312,2.217,2.217,0,0,0-1.2.323,2.173,2.173,0,0,0-.8.895,2.9,2.9,0,0,0-.282,1.3,2.593,2.593,0,0,0,.318,1.3,2.348,2.348,0,0,0,.87.888,2.466,2.466,0,0,0,1.272.324,2.672,2.672,0,0,0,.87-.15,2.11,2.11,0,0,0,.7-.378.491.491,0,0,1,.3-.115.427.427,0,0,1,.288.091.445.445,0,0,1,.162.312.343.343,0,0,1-.138.287,3.243,3.243,0,0,1-1.008.559A3.444,3.444,0,0,1,104.25,113.944Z" transform="translate(-0.129 -0.27)" fill="rgba(0,0,0,0.6)"/>
  <path d="M110.935,113.944a4.258,4.258,0,0,1-1.405-.241,2.629,2.629,0,0,1-1.128-.719.386.386,0,0,1-.108-.324.483.483,0,0,1,.18-.312.478.478,0,0,1,.648.06,1.841,1.841,0,0,0,.762.516,2.942,2.942,0,0,0,1.051.18,2.116,2.116,0,0,0,1.283-.306.941.941,0,0,0,.408-.739.841.841,0,0,0-.408-.713,3.468,3.468,0,0,0-1.344-.438,3.616,3.616,0,0,1-1.776-.672,1.452,1.452,0,0,1-.563-1.14,1.588,1.588,0,0,1,.323-1.02,1.962,1.962,0,0,1,.865-.612,3.327,3.327,0,0,1,1.187-.2,3.206,3.206,0,0,1,1.386.276,2.534,2.534,0,0,1,.942.744.421.421,0,0,1,.1.324.392.392,0,0,1-.193.276.482.482,0,0,1-.33.053.531.531,0,0,1-.318-.173,1.826,1.826,0,0,0-.7-.51,2.371,2.371,0,0,0-.912-.162,1.849,1.849,0,0,0-1.056.27.8.8,0,0,0-.4.678.783.783,0,0,0,.15.479,1.208,1.208,0,0,0,.517.361,4.613,4.613,0,0,0,1.025.264,4.546,4.546,0,0,1,1.422.426,1.846,1.846,0,0,1,.744.659,1.592,1.592,0,0,1,.223.823,1.572,1.572,0,0,1-.33.989,2.163,2.163,0,0,1-.912.666A3.471,3.471,0,0,1,110.935,113.944Z" transform="translate(-0.129 -0.27)" fill="rgba(0,0,0,0.6)"/>
  <path d="M114.691,108.364a.417.417,0,0,1-.3-.114.373.373,0,0,1-.12-.282.387.387,0,0,1,.12-.294.418.418,0,0,1,.3-.115h3.059a.419.419,0,0,1,.3.115.387.387,0,0,1,.12.294.373.373,0,0,1-.12.282.418.418,0,0,1-.3.114Zm2.988,5.52a2.13,2.13,0,0,1-1.921-1.122,2.444,2.444,0,0,1-.287-1.194V105.7a.467.467,0,0,1,.126-.336.434.434,0,0,1,.33-.132.452.452,0,0,1,.468.468v5.868a1.425,1.425,0,0,0,.359,1,1.2,1.2,0,0,0,.925.39H118a.4.4,0,0,1,.313.132.48.48,0,0,1,.12.336.415.415,0,0,1-.145.33.523.523,0,0,1-.359.126Z" transform="translate(-0.129 -0.27)" fill="rgba(0,0,0,0.6)"/>
  <path d="M123.031,108.364a.417.417,0,0,1-.3-.114.373.373,0,0,1-.12-.282.387.387,0,0,1,.12-.294.418.418,0,0,1,.3-.115h3.059a.419.419,0,0,1,.3.115.387.387,0,0,1,.12.294.373.373,0,0,1-.12.282.418.418,0,0,1-.3.114Zm2.988,5.52a2.13,2.13,0,0,1-1.921-1.122,2.444,2.444,0,0,1-.287-1.194V105.7a.467.467,0,0,1,.126-.336.434.434,0,0,1,.33-.132.452.452,0,0,1,.468.468v5.868a1.425,1.425,0,0,0,.359,1,1.2,1.2,0,0,0,.925.39h.323a.4.4,0,0,1,.313.132.48.48,0,0,1,.12.336.415.415,0,0,1-.145.33.524.524,0,0,1-.359.126Z" transform="translate(-0.129 -0.27)" fill="rgba(0,0,0,0.6)"/>
  <path d="M131.166,113.944a3.152,3.152,0,0,1-2.813-1.632,3.413,3.413,0,0,1-.426-1.7,3.366,3.366,0,0,1,.438-1.717,3.231,3.231,0,0,1,1.194-1.193,3.334,3.334,0,0,1,1.7-.438,3.3,3.3,0,0,1,1.7.438,3.247,3.247,0,0,1,1.189,1.193,3.466,3.466,0,0,1,.45,1.717l-.372.288a3.039,3.039,0,0,1-.4,1.554,2.979,2.979,0,0,1-1.092,1.092A3.057,3.057,0,0,1,131.166,113.944Zm.1-.84a2.39,2.39,0,0,0,1.241-.324,2.352,2.352,0,0,0,.865-.894,2.739,2.739,0,0,0,0-2.562,2.4,2.4,0,0,0-.865-.894,2.483,2.483,0,0,0-2.477,0,2.439,2.439,0,0,0-.876.894,2.694,2.694,0,0,0,0,2.562,2.374,2.374,0,0,0,2.112,1.218Zm2.867.78a.467.467,0,0,1-.336-.126.435.435,0,0,1-.132-.33v-2.052l.229-.948.708.18v2.82a.435.435,0,0,1-.132.33A.469.469,0,0,1,134.13,113.884Z" transform="translate(-0.129 -0.27)" fill="rgba(0,0,0,0.6)"/>
  <path d="M136.855,113.884a.432.432,0,0,1-.456-.456v-8.46a.456.456,0,1,1,.912,0v8.46a.432.432,0,0,1-.456.456Zm.3-2.2-.564-.612,4.1-3.708a.383.383,0,0,1,.588.023.435.435,0,0,1,.126.307.377.377,0,0,1-.15.282Zm4.139,2.136a.424.424,0,0,1-.323.114.413.413,0,0,1-.288-.174l-2.676-3.289.648-.575,2.7,3.323a.418.418,0,0,1,.107.307A.422.422,0,0,1,141.294,113.824Z" transform="translate(-0.129 -0.27)" fill="rgba(0,0,0,0.6)"/>
  <path d="M146.239,113.944a3.415,3.415,0,0,1-1.722-.427,3.048,3.048,0,0,1-1.176-1.181,3.459,3.459,0,0,1-.426-1.728,3.615,3.615,0,0,1,.4-1.734,3.03,3.03,0,0,1,1.11-1.182,3.07,3.07,0,0,1,1.632-.432,2.993,2.993,0,0,1,1.59.414,2.8,2.8,0,0,1,1.05,1.146,3.628,3.628,0,0,1,.372,1.668.4.4,0,0,1-.12.306.436.436,0,0,1-.312.114h-5.1v-.768h5.2l-.516.372a2.745,2.745,0,0,0-.252-1.248,2.054,2.054,0,0,0-.75-.864,2.1,2.1,0,0,0-1.158-.312,2.215,2.215,0,0,0-1.2.323,2.166,2.166,0,0,0-.8.895,2.885,2.885,0,0,0-.282,1.3,2.593,2.593,0,0,0,.318,1.3,2.348,2.348,0,0,0,.87.888,2.466,2.466,0,0,0,1.272.324,2.672,2.672,0,0,0,.87-.15,2.11,2.11,0,0,0,.7-.378.489.489,0,0,1,.3-.115.427.427,0,0,1,.288.091.445.445,0,0,1,.162.312.343.343,0,0,1-.138.287,3.243,3.243,0,0,1-1.008.559A3.444,3.444,0,0,1,146.239,113.944Z" transform="translate(-0.129 -0.27)" fill="rgba(0,0,0,0.6)"/>
  <path d="M152.923,113.944a4.256,4.256,0,0,1-1.4-.241,2.629,2.629,0,0,1-1.128-.719.382.382,0,0,1-.107-.324.476.476,0,0,1,.827-.252,1.841,1.841,0,0,0,.762.516,2.937,2.937,0,0,0,1.05.18,2.119,2.119,0,0,0,1.284-.306.948.948,0,0,0,.409-.739.842.842,0,0,0-.409-.713,3.468,3.468,0,0,0-1.344-.438,3.616,3.616,0,0,1-1.776-.672,1.454,1.454,0,0,1-.564-1.14,1.589,1.589,0,0,1,.324-1.02,1.959,1.959,0,0,1,.864-.612,3.337,3.337,0,0,1,1.188-.2,3.216,3.216,0,0,1,1.387.276,2.538,2.538,0,0,1,.941.744.425.425,0,0,1,.1.324.392.392,0,0,1-.193.276.482.482,0,0,1-.33.053.531.531,0,0,1-.318-.173,1.818,1.818,0,0,0-.7-.51,2.375,2.375,0,0,0-.912-.162,1.845,1.845,0,0,0-1.056.27.8.8,0,0,0-.4.678.777.777,0,0,0,.151.479,1.2,1.2,0,0,0,.515.361,4.62,4.62,0,0,0,1.027.264,4.556,4.556,0,0,1,1.421.426,1.857,1.857,0,0,1,.745.659,1.61,1.61,0,0,1,.221.823,1.566,1.566,0,0,1-.33.989,2.151,2.151,0,0,1-.912.666A3.468,3.468,0,0,1,152.923,113.944Z" transform="translate(-0.129 -0.27)" fill="rgba(0,0,0,0.6)"/>
  <path d="M162.907,113.944a4.258,4.258,0,0,1-1.405-.241,2.629,2.629,0,0,1-1.128-.719.382.382,0,0,1-.107-.324.479.479,0,0,1,.18-.312.477.477,0,0,1,.647.06,1.838,1.838,0,0,0,.763.516,2.933,2.933,0,0,0,1.05.18,2.123,2.123,0,0,0,1.284-.306.95.95,0,0,0,.408-.739.843.843,0,0,0-.408-.713,3.48,3.48,0,0,0-1.345-.438,3.612,3.612,0,0,1-1.775-.672,1.455,1.455,0,0,1-.565-1.14,1.6,1.6,0,0,1,.324-1.02,1.957,1.957,0,0,1,.865-.612,3.331,3.331,0,0,1,1.187-.2,3.216,3.216,0,0,1,1.387.276,2.53,2.53,0,0,1,.941.744.421.421,0,0,1,.1.324.394.394,0,0,1-.192.276.483.483,0,0,1-.33.053.533.533,0,0,1-.319-.173,1.815,1.815,0,0,0-.7-.51,2.382,2.382,0,0,0-.912-.162,1.848,1.848,0,0,0-1.057.27.8.8,0,0,0-.395.678.777.777,0,0,0,.15.479,1.2,1.2,0,0,0,.516.361,4.624,4.624,0,0,0,1.026.264,4.563,4.563,0,0,1,1.422.426,1.846,1.846,0,0,1,.744.659,1.61,1.61,0,0,1,.222.823,1.572,1.572,0,0,1-.33.989,2.154,2.154,0,0,1-.913.666A3.459,3.459,0,0,1,162.907,113.944Z" transform="translate(-0.129 -0.27)" fill="rgba(0,0,0,0.6)"/>
  <path d="M167.55,111.208a.452.452,0,0,1-.342-.132.467.467,0,0,1-.126-.336v-5.76a.435.435,0,0,1,.468-.468.446.446,0,0,1,.33.126.462.462,0,0,1,.126.342v5.76a.467.467,0,0,1-.126.336A.435.435,0,0,1,167.55,111.208Zm0,2.676a.464.464,0,0,1-.342-.126.446.446,0,0,1-.126-.33v-5.641a.435.435,0,0,1,.468-.467.446.446,0,0,1,.33.126.46.46,0,0,1,.126.341v5.641a.432.432,0,0,1-.456.456Zm5.16,0a.457.457,0,0,1-.336-.132.44.44,0,0,1-.131-.324v-3.121a2.388,2.388,0,0,0-.283-1.223,1.8,1.8,0,0,0-.767-.72,2.615,2.615,0,0,0-2.16-.013,1.894,1.894,0,0,0-.75.624,1.533,1.533,0,0,0-.277.9h-.66a2.6,2.6,0,0,1,.408-1.35,2.731,2.731,0,0,1,1.021-.936,2.939,2.939,0,0,1,1.416-.343,3.231,3.231,0,0,1,1.523.354,2.611,2.611,0,0,1,1.063,1.039,3.328,3.328,0,0,1,.389,1.667v3.121a.449.449,0,0,1-.456.456Z" transform="translate(-0.129 -0.27)" fill="rgba(0,0,0,0.6)"/>
  <path d="M178.1,113.944a3.152,3.152,0,0,1-2.813-1.632,3.4,3.4,0,0,1-.426-1.7,3.366,3.366,0,0,1,.437-1.717,3.234,3.234,0,0,1,1.2-1.193,3.52,3.52,0,0,1,3.4,0,3.245,3.245,0,0,1,1.188,1.193,3.466,3.466,0,0,1,.451,1.717l-.372.288a3.03,3.03,0,0,1-.4,1.554,2.971,2.971,0,0,1-1.092,1.092A3.053,3.053,0,0,1,178.1,113.944Zm.1-.84a2.39,2.39,0,0,0,1.241-.324,2.357,2.357,0,0,0,.864-.894,2.732,2.732,0,0,0,0-2.562,2.407,2.407,0,0,0-.864-.894,2.484,2.484,0,0,0-2.478,0,2.439,2.439,0,0,0-.876.894,2.694,2.694,0,0,0,0,2.562,2.387,2.387,0,0,0,.876.894A2.412,2.412,0,0,0,178.2,113.1Zm2.867.78a.467.467,0,0,1-.336-.126.435.435,0,0,1-.132-.33v-2.052l.229-.948.708.18v2.82a.435.435,0,0,1-.132.33A.469.469,0,0,1,181.062,113.884Z" transform="translate(-0.129 -0.27)" fill="rgba(0,0,0,0.6)"/>
  <path d="M183.8,116.692a.435.435,0,0,1-.468-.469v-5.664a3.366,3.366,0,0,1,.451-1.685,3.205,3.205,0,0,1,1.187-1.182,3.32,3.32,0,0,1,1.687-.432,3.356,3.356,0,0,1,1.715.438,3.241,3.241,0,0,1,1.195,1.193,3.376,3.376,0,0,1,.437,1.717,3.412,3.412,0,0,1-.425,1.7,3.155,3.155,0,0,1-2.815,1.632,3.1,3.1,0,0,1-1.458-.343,2.894,2.894,0,0,1-1.05-.905v3.527a.463.463,0,0,1-.126.343A.446.446,0,0,1,183.8,116.692Zm2.857-3.588a2.429,2.429,0,0,0,1.248-.324,2.357,2.357,0,0,0,.87-.894,2.747,2.747,0,0,0,0-2.562,2.38,2.38,0,0,0-2.118-1.225,2.361,2.361,0,0,0-2.1,1.225,2.794,2.794,0,0,0,0,2.562,2.3,2.3,0,0,0,.864.894A2.409,2.409,0,0,0,186.655,113.1Z" transform="translate(-0.129 -0.27)" fill="rgba(0,0,0,0.6)"/>
  <path d="M194.789,113.944a3.414,3.414,0,0,1-1.721-.427,3.048,3.048,0,0,1-1.176-1.181,3.459,3.459,0,0,1-.426-1.728,3.615,3.615,0,0,1,.4-1.734,3.03,3.03,0,0,1,1.11-1.182,3.07,3.07,0,0,1,1.632-.432,3,3,0,0,1,1.59.414,2.8,2.8,0,0,1,1.049,1.146,3.628,3.628,0,0,1,.372,1.668.4.4,0,0,1-.12.306.432.432,0,0,1-.311.114h-5.1v-.768h5.2l-.516.372a2.745,2.745,0,0,0-.252-1.248,2.054,2.054,0,0,0-.75-.864,2.1,2.1,0,0,0-1.158-.312,2.215,2.215,0,0,0-1.2.323,2.166,2.166,0,0,0-.8.895,2.885,2.885,0,0,0-.283,1.3,2.594,2.594,0,0,0,.319,1.3,2.348,2.348,0,0,0,.87.888,2.465,2.465,0,0,0,1.271.324,2.678,2.678,0,0,0,.871-.15,2.11,2.11,0,0,0,.7-.378.488.488,0,0,1,.3-.115.43.43,0,0,1,.289.091.445.445,0,0,1,.162.312.343.343,0,0,1-.138.287,3.267,3.267,0,0,1-1.008.559A3.449,3.449,0,0,1,194.789,113.944Z" transform="translate(-0.129 -0.27)" fill="rgba(0,0,0,0.6)"/>
  <!-- <rect width="240.945" height="204.094" rx="13.214" fill="none"/> -->
  <path d="M130.925,20.567a5.537,5.537,0,0,0-1.369-2.375,13.045,13.045,0,0,0-4.139-2.831,23.682,23.682,0,0,0-5.925-1.779,21.1,21.1,0,0,0-8.932.244,8.831,8.831,0,0,0-3.113,1.489,4.825,4.825,0,0,0-1.045,1.128,3.685,3.685,0,0,0-.553,1.4L102.841,35.73a3.691,3.691,0,0,0,.065,1.506,5.543,5.543,0,0,0,1.369,2.375,13.045,13.045,0,0,0,4.139,2.831,23.657,23.657,0,0,0,5.925,1.779,21.1,21.1,0,0,0,8.932-.244,8.833,8.833,0,0,0,3.113-1.49,4.816,4.816,0,0,0,1.044-1.127,3.691,3.691,0,0,0,.554-1.4l3.007-17.886A3.668,3.668,0,0,0,130.925,20.567Zm-4.677,19.1a1.942,1.942,0,0,1-.3.74,3.815,3.815,0,0,1-1.431,1.208,11.356,11.356,0,0,1-4.176,1.121,21.945,21.945,0,0,1-5.716-.241,19.367,19.367,0,0,1-7.646-2.862,7.106,7.106,0,0,1-1.973-1.923,3.07,3.07,0,0,1-.4-.892,1.93,1.93,0,0,1-.037-.8l.5-2.954a11.265,11.265,0,0,0,3.728,2.869,22.871,22.871,0,0,0,6.578,2.107,20.907,20.907,0,0,0,8.836-.239,9.335,9.335,0,0,0,2.532-1.1l-.5,2.962Zm.848-5.042a3.378,3.378,0,0,1-.671.7,9.187,9.187,0,0,1-4.33,1.576,21.546,21.546,0,0,1-6.5-.156,19.6,19.6,0,0,1-7.736-2.9,7.313,7.313,0,0,1-2.033-1.986,3.34,3.34,0,0,1-.4-.884l.651-3.875a11.256,11.256,0,0,0,3.729,2.869,22.83,22.83,0,0,0,6.578,2.106,20.887,20.887,0,0,0,8.835-.239,9.29,9.29,0,0,0,2.532-1.1l-.652,3.882Zm1-5.961a3.324,3.324,0,0,1-.671.7,9.166,9.166,0,0,1-4.33,1.575,21.514,21.514,0,0,1-6.5-.156,19.594,19.594,0,0,1-7.736-2.9,7.327,7.327,0,0,1-2.033-1.986,3.372,3.372,0,0,1-.4-.884l.652-3.875a11.252,11.252,0,0,0,3.728,2.869,22.809,22.809,0,0,0,6.578,2.106,20.875,20.875,0,0,0,8.836-.239,9.29,9.29,0,0,0,2.532-1.1l-.653,3.883Zm1-5.963a3.354,3.354,0,0,1-.671.7,9.166,9.166,0,0,1-4.33,1.576,21.514,21.514,0,0,1-6.5-.156,19.609,19.609,0,0,1-7.736-2.9,7.327,7.327,0,0,1-2.033-1.986,3.34,3.34,0,0,1-.4-.884l.155-.921a1.936,1.936,0,0,1,.3-.74,3.829,3.829,0,0,1,1.43-1.209,11.363,11.363,0,0,1,4.177-1.12,21.937,21.937,0,0,1,5.715.241,19.381,19.381,0,0,1,7.647,2.862,7.073,7.073,0,0,1,1.972,1.923,3.017,3.017,0,0,1,.4.892,1.947,1.947,0,0,1,.038.8Z" transform="translate(-0.129 -0.27)" fill="rgba(0,0,0,0.6)"/>
  <path d="M109.162,47.814l-1.816-.5a.309.309,0,0,1-.237-.221l-.419-1.523a.306.306,0,0,1,.089-.311l1.292-1.349a.523.523,0,0,0,.06-.708l-.767-.985a.522.522,0,0,0-.7-.115l-1.625.921a.31.31,0,0,1-.324.011l-1.373-.781a.312.312,0,0,1-.157-.283l-.038-1.883a.522.522,0,0,0-.457-.544l-1.239-.155a.524.524,0,0,0-.578.415l-.5,1.816a.309.309,0,0,1-.221.237l-1.523.42a.31.31,0,0,1-.312-.091l-1.348-1.291a.524.524,0,0,0-.709-.06l-.984.766a.525.525,0,0,0-.116.7l.921,1.625a.308.308,0,0,1,.011.323l-.78,1.373a.309.309,0,0,1-.283.157l-1.885.038a.524.524,0,0,0-.543.458l-.154,1.239a.522.522,0,0,0,.414.577l1.817.5a.31.31,0,0,1,.236.222l.42,1.522a.311.311,0,0,1-.09.312L93.952,52a.525.525,0,0,0-.06.709l.766.984a.524.524,0,0,0,.7.115l1.624-.921a.309.309,0,0,1,.325-.01l1.373.779a.313.313,0,0,1,.157.285l.038,1.883a.525.525,0,0,0,.458.544l1.239.154a.523.523,0,0,0,.577-.415l.5-1.816a.31.31,0,0,1,.222-.237l1.523-.419a.309.309,0,0,1,.311.089l1.349,1.292a.523.523,0,0,0,.708.061l.985-.766a.525.525,0,0,0,.115-.7l-.921-1.625a.31.31,0,0,1-.011-.324l.781-1.373a.308.308,0,0,1,.283-.157l1.884-.038a.524.524,0,0,0,.544-.458l.154-1.239A.523.523,0,0,0,109.162,47.814Zm-6.369,2.428a2.9,2.9,0,1,1,1.1-1.931A2.883,2.883,0,0,1,102.793,50.242Z" transform="translate(-0.129 -0.27)" fill="rgba(0,0,0,0.6)"/>
  <path d="M94.059,42.576a.411.411,0,0,0,.316-.46l-.115-1.472a.246.246,0,0,1,.1-.234l1.012-.714a.241.241,0,0,1,.253-.016l1.339.594a.411.411,0,0,0,.539-.143l.522-.827a.408.408,0,0,0-.1-.548L96.814,37.8a.242.242,0,0,1-.093-.237l.21-1.22a.246.246,0,0,1,.167-.191l1.381-.529a.409.409,0,0,0,.279-.481l-.215-.955a.412.412,0,0,0-.46-.317l-1.472.114a.241.241,0,0,1-.234-.1l-.714-1.012a.239.239,0,0,1-.016-.253l.594-1.338a.411.411,0,0,0-.143-.539l-.827-.523a.411.411,0,0,0-.549.1l-.953,1.112a.247.247,0,0,1-.237.094l-1.22-.211a.247.247,0,0,1-.191-.168l-.528-1.38a.411.411,0,0,0-.483-.279l-.954.215a.409.409,0,0,0-.316.459l.114,1.473a.245.245,0,0,1-.1.234l-1.012.714a.245.245,0,0,1-.254.016l-1.338-.595a.41.41,0,0,0-.538.144l-.523.827a.41.41,0,0,0,.1.548l1.111.954a.241.241,0,0,1,.094.236l-.211,1.22a.241.241,0,0,1-.167.191l-1.38.529a.41.41,0,0,0-.279.482l.215.955a.41.41,0,0,0,.459.316l1.473-.115a.243.243,0,0,1,.233.1l.714,1.011a.242.242,0,0,1,.016.254L87.973,41a.411.411,0,0,0,.144.539l.827.522a.409.409,0,0,0,.548-.1l.953-1.111a.242.242,0,0,1,.237-.093l1.22.21a.245.245,0,0,1,.192.168l.528,1.379a.411.411,0,0,0,.482.28Zm-1.452-4.217a2.273,2.273,0,1,1,1.423-1A2.264,2.264,0,0,1,92.607,38.359Z" transform="translate(-0.129 -0.27)" fill="rgba(0,0,0,0.6)"/>
  <path d="M11.346,60.375l4.493,3.284A16.717,16.717,0,0,1,39.17,60.034l3.284-4.493A22.285,22.285,0,0,0,11.346,60.375Z" transform="translate(-0.129 -0.27)" fill="rgba(0,0,0,0.6)"/>
  <path d="M18.085,65.3l4.492,3.284a8.358,8.358,0,0,1,11.665-1.812l3.285-4.493A13.924,13.924,0,0,0,18.085,65.3Z" transform="translate(-0.129 -0.27)" fill="rgba(0,0,0,0.6)"/>
  <path d="M24.824,70.228l4.493,3.285L32.6,69.019A5.568,5.568,0,0,0,24.824,70.228Z" transform="translate(-0.129 -0.27)" fill="rgba(0,0,0,0.6)"/>
  <path d="M205.358,69.644a4.219,4.219,0,0,1-.929.409c-.2-.009-.392-.025-.588-.044l.355-2.256q-.607-.681-1.216-1.4l-.542,3.439c-.192-.043-.383-.088-.572-.139a4.271,4.271,0,0,1-.759-.675,9.158,9.158,0,0,1-1.853-3.99l2.982.47q-.655-.8-1.3-1.643l-1.946-.307a19.8,19.8,0,0,1-.172-2.569q-.695-.99-1.343-1.975a22.6,22.6,0,0,0,.055,4.315l-3.583-.564a11.908,11.908,0,0,1-.874-5.794l3.44.541q-.5-.8-.961-1.588l-2.258-.356a12.06,12.06,0,0,1,.773-2.339c-.374-.724-.72-1.435-1.033-2.126A13.882,13.882,0,0,0,208.01,71.63c-.749-.681-1.512-1.427-2.282-2.226C205.605,69.491,205.481,69.572,205.358,69.644Zm-10.051-4.509c-.2-.278-.391-.566-.569-.861l3.021.476a15.47,15.47,0,0,0,.477,1.853,11.264,11.264,0,0,0,.813,1.884A12.014,12.014,0,0,1,195.307,65.135Z" transform="translate(-0.129 -0.27)" fill="rgba(0,0,0,0.6)"/>
  <path d="M196.512,47.1c.215.584.467,1.2.752,1.831.221-.188.445-.372.68-.544a12.016,12.016,0,0,1,4.6-2.043,12.986,12.986,0,0,0-2.388,3.162l-2.837-.447c.228.505.478,1.025.746,1.555l1.421.224c-.2.445-.389.911-.567,1.39q.448.815.947,1.65a20.141,20.141,0,0,1,1.083-2.81l4.329.682-.869,5.519-2.665-.42q.54.807,1.111,1.613l1.333.21L203.979,60q.591.791,1.193,1.552l.42-2.665,5.182.816a21.7,21.7,0,0,1-1.722,5.385l-1.027-.161q.883.974,1.749,1.841c.023-.04.048-.077.071-.118l3.018.476c-.26.225-.527.441-.805.643-.235.171-.478.33-.725.483.516.465,1.02.893,1.508,1.276A13.879,13.879,0,1,0,196.512,47.1ZM214.1,65.885l-3.587-.564a23.43,23.43,0,0,0,1.667-5.394l4.531.713A11.9,11.9,0,0,1,214.1,65.885Zm1.957-12.441a11.9,11.9,0,0,1,.875,5.793l-4.536-.714a23.471,23.471,0,0,0,.079-5.643Zm-1.364-2.423c.2.278.39.566.568.86l-3.02-.475a15.283,15.283,0,0,0-.477-1.853,11.346,11.346,0,0,0-.812-1.884A12.023,12.023,0,0,1,214.694,51.021Zm-7.131-4.654c.193.043.384.088.573.139a4.264,4.264,0,0,1,.759.674,9.169,9.169,0,0,1,1.852,3.99l-3.845-.605Zm-.882,5.6,4.335.683A21.7,21.7,0,0,1,211,58.3l-5.187-.816Zm-2.038-5.456a4.288,4.288,0,0,1,.929-.409q.294.015.588.044l-.66,4.2-3.838-.6c.215-.358.436-.7.665-1.013A8.038,8.038,0,0,1,204.643,46.511Z" transform="translate(-0.129 -0.27)" fill="rgba(0,0,0,0.6)"/>
  <path d="M218.622,69.877a19.04,19.04,0,0,0-.772-2.654,15.833,15.833,0,0,1-1.419,1.717c.142.471.255.909.335,1.31a5.66,5.66,0,0,1,.124,1.894,1.476,1.476,0,0,1-.134.447.452.452,0,0,1-.365.266,1.515,1.515,0,0,1-.466-.01,5.437,5.437,0,0,1-1.645-.634,16.778,16.778,0,0,1-2.266-1.526,55.458,55.458,0,0,1-9.749-10.617,55.432,55.432,0,0,1-7.108-12.54,16.905,16.905,0,0,1-.757-2.624,5.458,5.458,0,0,1-.1-1.76,1.457,1.457,0,0,1,.134-.447.457.457,0,0,1,.366-.266,1.46,1.46,0,0,1,.467.01,5.648,5.648,0,0,1,1.762.7c.358.2.743.443,1.149.724a15.69,15.69,0,0,1,2.069-.823,18.9,18.9,0,0,0-2.293-1.553,7.444,7.444,0,0,0-2.393-.917,3.33,3.33,0,0,0-1.082-.006,2.344,2.344,0,0,0-1.722,1.254,3.342,3.342,0,0,0-.327,1.03,7.215,7.215,0,0,0,.107,2.4,18.593,18.593,0,0,0,.84,2.928,57.158,57.158,0,0,0,7.355,13,57.13,57.13,0,0,0,10.113,10.994,18.656,18.656,0,0,0,2.529,1.7,7.23,7.23,0,0,0,2.254.84,3.352,3.352,0,0,0,1.081.006,2.343,2.343,0,0,0,1.721-1.253,3.33,3.33,0,0,0,.327-1.031A7.4,7.4,0,0,0,218.622,69.877Z" transform="translate(-0.129 -0.27)" fill="rgba(0,0,0,0.6)"/>
  <path d="M30.43,149.272a2.925,2.925,0,1,0-3.3-2.494A2.926,2.926,0,0,0,30.43,149.272Z" transform="translate(-0.129 -0.27)" fill="rgba(0,0,0,0.6)"/>
  <path d="M41.5,156.734a1.359,1.359,0,0,0-.041-.17l3.89-3.743a.616.616,0,0,0-.855-.888l-3.9,3.751a1.264,1.264,0,0,0-.543-.045l-2.357.328-1.025-3.177c-.543-1.6-1.381-2.8-2.785-2.6l-5.951.828a3.287,3.287,0,0,0-2.523,3.339l1.354,9.737a1.285,1.285,0,0,0,1.448,1.095l.887-.124L30.74,173.3a1.366,1.366,0,0,0,1.541,1.164l2.7-.376a1.365,1.365,0,0,0,1.164-1.54L34.5,156.012l.032,0,.586,1.554a1.587,1.587,0,0,0,1.738,1.113l3.554-.494A1.282,1.282,0,0,0,41.5,156.734Z" transform="translate(-0.129 -0.27)" fill="rgba(0,0,0,0.6)"/>
  <polygon points="37.143 143.164 38.614 153.743 40.278 153.511 39.038 144.597 57.893 141.973 60.105 157.871 41.25 160.494 40.971 158.493 39.308 158.725 39.817 162.39 62 159.303 59.326 140.078 37.143 143.164" fill="rgba(0,0,0,0.6)"/>
  <path d="M46.376,149.056l4.447.907-.626-4.5A4.54,4.54,0,0,0,46.376,149.056Z" transform="translate(-0.129 -0.27)" fill="rgba(0,0,0,0.6)"/>
  <path d="M48.423,153a4.542,4.542,0,1,0,3.873-5.124l.626,4.5-4.447-.906A4.531,4.531,0,0,0,48.423,153Z" transform="translate(-0.129 -0.27)" fill="rgba(0,0,0,0.6)"/>
  <path d="M136,178.977a20.816,20.816,0,0,0-4.82-1.634c-.728-.059-1.478.748-1.587,1.627s-.561.866-.561.866-1.787-.37-5.346-3-4.438-4.225-4.438-4.225-.148-.428.661-.792a1.767,1.767,0,0,0,1.087-2,20.825,20.825,0,0,0-2.983-4.123,2.055,2.055,0,0,0-2.5.153c-.28.274-3.271,2.866-1.7,6.586A21.607,21.607,0,0,0,130.8,184.98c4.017.405,5.612-3.218,5.791-3.566A2.057,2.057,0,0,0,136,178.977Z" transform="translate(-0.129 -0.27)" fill="rgba(0,0,0,0.6)"/>
  <path d="M126.165,168.754a9.295,9.295,0,0,1,4.528,3.353c.345.5.556.579.709.519.252-.1.328-.182.271-.73a5.736,5.736,0,0,0-5.591-4.141c-.541.1-.6.2-.618.472C125.45,168.39,125.587,168.57,126.165,168.754Z" transform="translate(-0.129 -0.27)" fill="rgba(0,0,0,0.6)"/>
  <path d="M126.18,163.189c-.664.1-.77.535-.766.7.007.329.283.554.8.622a10.938,10.938,0,0,1,8.529,6.318c.214.472.51.67.827.582.157-.043.543-.273.443-.937a9.9,9.9,0,0,0-9.831-7.282Z" transform="translate(-0.129 -0.27)" fill="rgba(0,0,0,0.6)"/>
  <path d="M135.15,161.357a12.564,12.564,0,0,0-8.518-2.69c-.788.1-1.048.5-.993.857a.93.93,0,0,0,.9.629,15.211,15.211,0,0,1,12.278,9.094.932.932,0,0,0,.862.674c.362-.054.668-.417.53-1.2A12.56,12.56,0,0,0,135.15,161.357Z" transform="translate(-0.129 -0.27)" fill="rgba(0,0,0,0.6)"/>
  <path d="M213.59,147.486l-26.421-8.911a2.651,2.651,0,0,0-3.362,1.661l-7.367,21.771a2.651,2.651,0,0,0,1.662,3.362l26.421,8.911a2.652,2.652,0,0,0,3.362-1.662l7.367-21.77A2.651,2.651,0,0,0,213.59,147.486Zm-1.631,1.489a1.05,1.05,0,1,1-1.331.658A1.051,1.051,0,0,1,211.959,148.975Zm-3.69-1.248a1.049,1.049,0,1,1-1.33.657A1.049,1.049,0,0,1,208.269,147.727Zm-3.689-1.249a1.05,1.05,0,1,1-1.331.658A1.05,1.05,0,0,1,204.58,146.478Zm1.212,25.432a.443.443,0,0,1-.56.277l-26.422-8.912a.442.442,0,0,1-.277-.56l6.375-18.84,27.259,9.195Z" transform="translate(-0.129 -0.27)" fill="rgba(0,0,0,0.6)"/>
</svg>